<?xml version="1.0"?>
<!DOCTYPE svg PUBLIC "-//W3C//DTD SVG 1.1//EN" "http://www.w3.org/Graphics/SVG/1.1/DTD/svg11.dtd">
<!--Phoronix Test Suite v8.6.0 [ http://www.phoronix-test-suite.com/ ]-->
<svg xmlns="http://www.w3.org/2000/svg" xmlns:xlink="http://www.w3.org/1999/xlink" version="1.1" font-family="sans-serif, droid-sans, helvetica, verdana, tahoma" viewbox="0 0 600 184" width="600" height="184" preserveAspectRatio="xMinYMin meet"><rect x="0" y="0" width="600" height="184" fill="#FEFEFE" stroke="#757575" stroke-width="2"/><g stroke="#757575" stroke-width="1"><line x1="70" y1="64" x2="70" y2="111"/><line x1="70" y1="110" x2="586" y2="110"/></g><a xlink:href="https://www.phoronix-test-suite.com/" xlink:show="new"><text x="585" y="59" font-size="8" fill="#065695" text-anchor="end" xlink:show="new">PHORONIX-TEST-SUITE.COM</text></a><polygon points="70,56 79,60.5 79,51.5" fill="#065695" stroke="#949494" stroke-width="1"/><text x="82" y="59" font-size="8" fill="#065695" text-anchor="start">Seconds, Less Is Better</text><rect x="0" y="0" width="600" height="48" fill="#231f20"/><a xlink:href="https://openbenchmarking.org/test/pts/dcraw-1.1.0" xlink:show="new"><text x="6" y="19" font-size="17" fill="#FEFEFE" text-anchor="start" xlink:show="new" font-weight="bold">dcraw</text></a><text x="6" y="36" font-size="11" font-weight="bold" fill="#FEFEFE" text-anchor="start">RAW To PPM Image Conversion</text><path d="m74 22v9m-5-16v16m-5-28v28m-23-2h12.5c2.485281 0 4.5-2.014719 4.5-4.5s-2.014719-4.5-4.5-4.5h-8c-2.485281 0-4.5-2.014719-4.5-4.5s2.014719-4.5 4.5-4.5h12.5m-21 5h-11m11 13h-2c-4.970563 0-9-4.029437-9-9v-20m-24 40v-20c0-4.970563 4.0294373-9 9-9 4.970563 0 9 4.029437 9 9s-4.029437 9-9 9h-9" stroke="#ffffff" stroke-width="4" fill="none" transform="translate(508,4)"/><g font-size="10" fill="#231f20" font-weight="bold"><text x="65" y="85" text-anchor="end">dcraw</text></g><g font-size="10" fill="#065695" text-anchor="middle"><text x="158" y="125">50</text><text x="244" y="125">100</text><text x="330" y="125">150</text><text x="416" y="125">200</text><text x="502" y="125">250</text></g><g stroke="#BABABA" stroke-width="1"><line x1="158" y1="64" x2="158" y2="105" stroke-dasharray="5,5"/><line x1="158" y1="106" x2="158" y2="115"/><line x1="244" y1="64" x2="244" y2="105" stroke-dasharray="5,5"/><line x1="244" y1="106" x2="244" y2="115"/><line x1="330" y1="64" x2="330" y2="105" stroke-dasharray="5,5"/><line x1="330" y1="106" x2="330" y2="115"/><line x1="416" y1="64" x2="416" y2="105" stroke-dasharray="5,5"/><line x1="416" y1="106" x2="416" y2="115"/><line x1="502" y1="64" x2="502" y2="105" stroke-dasharray="5,5"/><line x1="502" y1="106" x2="502" y2="115"/></g><g stroke="#949494" stroke-width="1"><rect x="70" y="70" height="34" width="409" fill="#2196f3" xlink:title="dcraw: 238"/></g><g font-size="8" fill="#065695" text-anchor="end"><text y="101" x="65">SE +/- 0.04</text></g><g font-size="10" fill="#FFFFFF" font-weight="bold" text-anchor="end"><text x="474" y="93">238</text></g><rect x="0" y="132" width="600" height="52" fill="#231f20"/><a xlink:href="https://www.phoronix-test-suite.com/" xlink:show="new"><text x="585" y="144" font-size="9" fill="#FEFEFE" text-anchor="end" xlink:show="new">Phoronix Test Suite 8.6.0</text></a><text x="5" y="158" font-size="8" fill="#FEFEFE" text-anchor="start" xlink:title="-lm" width="595">1. (CC) gcc options: -lm</text></svg>
