<?xml version="1.0"?>
<!DOCTYPE svg PUBLIC "-//W3C//DTD SVG 1.1//EN" "http://www.w3.org/Graphics/SVG/1.1/DTD/svg11.dtd">
<!--Phoronix Test Suite v8.6.0 [ http://www.phoronix-test-suite.com/ ]-->
<svg xmlns="http://www.w3.org/2000/svg" xmlns:xlink="http://www.w3.org/1999/xlink" version="1.1" font-family="sans-serif, droid-sans, helvetica, verdana, tahoma" viewbox="0 0 195 169" width="195" height="169" preserveAspectRatio="xMinYMin meet"><rect x="0" y="0" width="195" height="169" fill="#FEFEFE" stroke="#757575" stroke-width="2"/><rect x="1" y="1" width="194" height="168" fill="#FEFEFE" stroke="#757575" stroke-width="1"/><path d="m74 22v9m-5-16v16m-5-28v28m-23-2h12.5c2.485281 0 4.5-2.014719 4.5-4.5s-2.014719-4.5-4.5-4.5h-8c-2.485281 0-4.5-2.014719-4.5-4.5s2.014719-4.5 4.5-4.5h12.5m-21 5h-11m11 13h-2c-4.970563 0-9-4.029437-9-9v-20m-24 40v-20c0-4.970563 4.0294373-9 9-9 4.970563 0 9 4.029437 9 9s-4.029437 9-9 9h-9" stroke="#000000" stroke-width="4" fill="none" transform="translate(31,28)"/><line x1="142" y1="89" x2="195" y2="89" stroke="#BABABA" stroke-width="128" stroke-dasharray="53,53"/><line x1="98" y1="73" x2="98" y2="153" stroke="#949494" stroke-width="195" stroke-dasharray="16,16"/><line x1="142" y1="89" x2="195" y2="89" stroke="#757575" stroke-width="128" stroke-dasharray="1,52"/><rect x="1" y="1" width="193" height="25" fill="#231f20"/><text x="5" y="19" font-size="17" fill="#FEFEFE" text-anchor="start">redis_</text><line x1="1" y1="25" x2="194" y2="25" stroke="#757575" stroke-width="1"/><g font-size="10" font-weight="bold" fill="#065695" text-anchor="end"><a xlink:href="https://openbenchmarking.org/test/pts/redis-1.1.0" xlink:show="new"><text x="140" y="85">redis: Test: LPOP</text></a><a xlink:href="https://openbenchmarking.org/test/pts/redis-1.1.0" xlink:show="new"><text x="140" y="101">redis: Test: SADD</text></a><a xlink:href="https://openbenchmarking.org/test/pts/redis-1.1.0" xlink:show="new"><text x="140" y="117">redis: Test: LPUSH</text></a><a xlink:href="https://openbenchmarking.org/test/pts/redis-1.1.0" xlink:show="new"><text x="140" y="133">redis: Test: GET</text></a><a xlink:href="https://openbenchmarking.org/test/pts/redis-1.1.0" xlink:show="new"><text x="140" y="149">redis: Test: SET</text></a></g><g font-size="10" fill="#065695" font-weight="bold" text-anchor="middle" dominant-baseline="text-before-edge"><text x="169" y="49">redis_</text></g><g fill="#BABABA"/><g text-anchor="middle" font-size="10" fill="#065695"><text x="169" y="86" xlink:title="STD Dev: 0.33%;  STD Error: 953.57">498343</text><text x="169" y="102" xlink:title="STD Dev: 2.44%;  STD Error: 5413.09">384914</text><text x="169" y="118" xlink:title="STD Dev: 1.30%;  STD Error: 2172.91">288828</text><text x="169" y="134" xlink:title="STD Dev: 2.04%;  STD Error: 5491.82">465320</text><text x="169" y="150" xlink:title="STD Dev: 0.58%;  STD Error: 1142.21">339528</text></g><line x1="98" y1="73" x2="98" y2="153" stroke="#949494" stroke-width="195" stroke-dasharray="1,15"/><rect x="0" y="153" width="195" height="16" fill="#231f20"/><a xlink:href="https://www.phoronix-test-suite.com/" xlink:show="new"><text x="193" y="166" font-size="10" fill="#FFFFFF" text-anchor="end" xlink:show="new">PHORONIX-TEST-SUITE.COM</text></a></svg>
