<?xml version="1.0"?>
<!DOCTYPE svg PUBLIC "-//W3C//DTD SVG 1.1//EN" "http://www.w3.org/Graphics/SVG/1.1/DTD/svg11.dtd">
<!--Phoronix Test Suite v8.6.0 [ http://www.phoronix-test-suite.com/ ]-->
<svg xmlns="http://www.w3.org/2000/svg" xmlns:xlink="http://www.w3.org/1999/xlink" version="1.1" font-family="sans-serif, droid-sans, helvetica, verdana, tahoma" viewbox="0 0 600 182" width="600" height="182" preserveAspectRatio="xMinYMin meet"><rect x="0" y="0" width="600" height="182" fill="#FEFEFE" stroke="#757575" stroke-width="2"/><g stroke="#757575" stroke-width="1"><line x1="91" y1="64" x2="91" y2="111"/><line x1="91" y1="110" x2="586" y2="110"/></g><a xlink:href="https://www.phoronix-test-suite.com/" xlink:show="new"><text x="585" y="59" font-size="8" fill="#065695" text-anchor="end" xlink:show="new">PHORONIX-TEST-SUITE.COM</text></a><polygon points="91,56 100,60.5 100,51.5" fill="#065695" stroke="#949494" stroke-width="1"/><text x="103" y="59" font-size="8" fill="#065695" text-anchor="start">Seconds, Less Is Better</text><rect x="0" y="0" width="600" height="48" fill="#231f20"/><a xlink:href="https://openbenchmarking.org/test/pts/encode-flac-1.6.0" xlink:show="new"><text x="6" y="19" font-size="17" fill="#FEFEFE" text-anchor="start" xlink:show="new" font-weight="bold">FLAC Audio Encoding v1.3.2</text></a><text x="6" y="36" font-size="11" font-weight="bold" fill="#FEFEFE" text-anchor="start">WAV To FLAC</text><path d="m74 22v9m-5-16v16m-5-28v28m-23-2h12.5c2.485281 0 4.5-2.014719 4.5-4.5s-2.014719-4.5-4.5-4.5h-8c-2.485281 0-4.5-2.014719-4.5-4.5s2.014719-4.5 4.5-4.5h12.5m-21 5h-11m11 13h-2c-4.970563 0-9-4.029437-9-9v-20m-24 40v-20c0-4.970563 4.0294373-9 9-9 4.970563 0 9 4.029437 9 9s-4.029437 9-9 9h-9" stroke="#ffffff" stroke-width="4" fill="none" transform="translate(508,4)"/><g font-size="10" fill="#231f20" font-weight="bold"><text x="86" y="85" text-anchor="end">encode_flac</text></g><g font-size="10" fill="#065695" text-anchor="middle"><text x="175" y="125">12</text><text x="257" y="125">24</text><text x="339" y="125">36</text><text x="421" y="125">48</text><text x="503" y="125">60</text></g><g stroke="#BABABA" stroke-width="1"><line x1="175" y1="64" x2="175" y2="105" stroke-dasharray="5,5"/><line x1="175" y1="106" x2="175" y2="115"/><line x1="257" y1="64" x2="257" y2="105" stroke-dasharray="5,5"/><line x1="257" y1="106" x2="257" y2="115"/><line x1="339" y1="64" x2="339" y2="105" stroke-dasharray="5,5"/><line x1="339" y1="106" x2="339" y2="115"/><line x1="421" y1="64" x2="421" y2="105" stroke-dasharray="5,5"/><line x1="421" y1="106" x2="421" y2="115"/><line x1="503" y1="64" x2="503" y2="105" stroke-dasharray="5,5"/><line x1="503" y1="106" x2="503" y2="115"/></g><g stroke="#949494" stroke-width="1"><rect x="91" y="70" height="34" width="360" fill="#2196f3" xlink:title="encode_flac: 52.45"/></g><g font-size="8" fill="#065695" text-anchor="end"><text y="101" x="86">SE +/- 0.05</text></g><g font-size="10" fill="#FFFFFF" font-weight="bold" text-anchor="end"><text x="446" y="93">52.45</text></g><rect x="0" y="132" width="600" height="50" fill="#231f20"/><a xlink:href="https://www.phoronix-test-suite.com/" xlink:show="new"><text x="585" y="144" font-size="9" fill="#FEFEFE" text-anchor="end" xlink:show="new">Phoronix Test Suite 8.6.0</text></a><text x="5" y="158" font-size="8" fill="#FEFEFE" text-anchor="start" xlink:title="-O2 -fvisibility=hidden -lm" width="595">1. (CXX) g++ options: -O2 -fvisibility=hidden -lm</text></svg>
