<?xml version="1.0"?>
<!DOCTYPE svg PUBLIC "-//W3C//DTD SVG 1.1//EN" "http://www.w3.org/Graphics/SVG/1.1/DTD/svg11.dtd">
<!--Phoronix Test Suite v8.6.0 [ http://www.phoronix-test-suite.com/ ]-->
<svg xmlns="http://www.w3.org/2000/svg" xmlns:xlink="http://www.w3.org/1999/xlink" version="1.1" font-family="sans-serif, droid-sans, helvetica, verdana, tahoma" viewbox="0 0 319 547" width="319" height="547" preserveAspectRatio="xMinYMin meet"><rect x="0" y="0" width="319" height="547" fill="#FEFEFE" stroke="#757575" stroke-width="2"/><rect x="2" y="1" width="316" height="38" fill="#231f20" stroke="#757575" stroke-width="1"/><text x="159.5" y="19" font-size="17" fill="#FEFEFE" text-anchor="middle" font-weight="bold">m_player</text><a xlink:href="https://www.phoronix-test-suite.com/" xlink:show="new"><text x="4" y="36" font-size="8" fill="#FEFEFE" text-anchor="start" xlink:show="new" font-weight="bold">PHORONIX-TEST-SUITE.COM</text></a><a xlink:href="https://www.phoronix-test-suite.com/" xlink:show="new"><text x="315" y="36" font-size="8" fill="#FEFEFE" text-anchor="end" xlink:show="new" font-weight="bold">Phoronix Test Suite 8.6.0</text></a><g fill="#949494"><rect x="0" y="55" width="319" height="16"/><rect x="0" y="87" width="319" height="16"/><rect x="0" y="119" width="319" height="16"/><rect x="0" y="151" width="319" height="16"/><rect x="0" y="183" width="319" height="16"/><rect x="0" y="215" width="319" height="16"/><rect x="0" y="247" width="319" height="16"/><rect x="0" y="279" width="319" height="16"/></g><g fill="none" stroke-width="1" stroke="#005a00"/><g font-size="10" fill="#065695" text-anchor="middle" font-weight="bold"><a xlink:href="http://openbenchmarking.org/s/Intel Celeron N3050 @ 2.16GHz (2 Cores)" xlink:show="new"><text x="159.5" y="52" xlink:title="Processor: Intel Celeron N3050 @ 2.16GHz (2 Cores)">Intel Celeron N3050 @ 2.16GHz (2 Cores)</text></a><a xlink:href="http://openbenchmarking.org/s/HP 82A9 v04.20 (F.10 BIOS)" xlink:show="new"><text x="159.5" y="68" xlink:title="Motherboard: HP 82A9 v04.20 (F.10 BIOS)">HP 82A9 v04.20 (F.10 BIOS)</text></a><a xlink:href="http://openbenchmarking.org/s/Intel Atom/Celeron/Pentium" xlink:show="new"><text x="159.5" y="84" xlink:title="Chipset: Intel Atom/Celeron/Pentium">Intel Atom/Celeron/Pentium</text></a><a xlink:href="http://openbenchmarking.org/s/4096MB" xlink:show="new"><text x="159.5" y="100" xlink:title="Memory: 4096MB">4096MB</text></a><a xlink:href="http://openbenchmarking.org/s/31GB DF4032" xlink:show="new"><text x="159.5" y="116" xlink:title="Disk: 31GB DF4032">31GB DF4032</text></a><a xlink:href="http://openbenchmarking.org/s/Intel HD 400 2GB (600MHz)" xlink:show="new"><text x="159.5" y="132" xlink:title="Graphics: Intel HD 400 2GB (600MHz)">Intel HD 400 2GB (600MHz)</text></a><a xlink:href="http://openbenchmarking.org/s/Realtek ALC3227" xlink:show="new"><text x="159.5" y="148" xlink:title="Audio: Realtek ALC3227">Realtek ALC3227</text></a><a xlink:href="http://openbenchmarking.org/s/Intel 7265" xlink:show="new"><text x="159.5" y="164" xlink:title="Network: Intel 7265">Intel 7265</text></a><a xlink:href="http://openbenchmarking.org/s/Debian 9.5" xlink:show="new"><text x="159.5" y="180" xlink:title="OS: Debian 9.5">Debian 9.5</text></a><a xlink:href="http://openbenchmarking.org/s/4.9.0-7-amd64 (x86_64)" xlink:show="new"><text x="159.5" y="196" xlink:title="Kernel: 4.9.0-7-amd64 (x86_64)">4.9.0-7-amd64 (x86_64)</text></a><a xlink:href="http://openbenchmarking.org/s/GNOME Shell 3.22.3" xlink:show="new"><text x="159.5" y="212" xlink:title="Desktop: GNOME Shell 3.22.3">GNOME Shell 3.22.3</text></a><a xlink:href="http://openbenchmarking.org/s/X Server 1.19.2" xlink:show="new"><text x="159.5" y="228" xlink:title="Display Server: X Server 1.19.2">X Server 1.19.2</text></a><a xlink:href="http://openbenchmarking.org/s/modesetting 1.19.2" xlink:show="new"><text x="159.5" y="244" xlink:title="Display Driver: modesetting 1.19.2">modesetting 1.19.2</text></a><a xlink:href="http://openbenchmarking.org/s/4.5 Mesa 13.0.6" xlink:show="new"><text x="159.5" y="260" xlink:title="OpenGL: 4.5 Mesa 13.0.6">4.5 Mesa 13.0.6</text></a><a xlink:href="http://openbenchmarking.org/s/GCC 6.3.0 20170516" xlink:show="new"><text x="159.5" y="276" xlink:title="Compiler: GCC 6.3.0 20170516">GCC 6.3.0 20170516</text></a><a xlink:href="http://openbenchmarking.org/s/ext4" xlink:show="new"><text x="159.5" y="292" xlink:title="File-System: ext4">ext4</text></a><a xlink:href="http://openbenchmarking.org/s/1366x768" xlink:show="new"><text x="159.5" y="308" xlink:title="Screen Resolution: 1366x768">1366x768</text></a></g><g font-size="7" fill="#065695" text-anchor="end"><text x="315" y="48">Processor</text><text x="315" y="64">Motherboard</text><text x="315" y="80">Chipset</text><text x="315" y="96">Memory</text><text x="315" y="112">Disk</text><text x="315" y="128">Graphics</text><text x="315" y="144">Audio</text><text x="315" y="160">Network</text><text x="315" y="176">OS</text><text x="315" y="192">Kernel</text><text x="315" y="208">Desktop</text><text x="315" y="224">Display Server</text><text x="315" y="240">Display Driver</text><text x="315" y="256">OpenGL</text><text x="315" y="272">Compiler</text><text x="315" y="288">File-System</text><text x="315" y="304">Screen Resolution</text></g><g stroke="#757575" stroke-width="1"><line x1="0" y1="39" x2="319" y2="39"/><line x1="0" y1="55" x2="319" y2="55"/><line x1="0" y1="71" x2="319" y2="71"/><line x1="0" y1="87" x2="319" y2="87"/><line x1="0" y1="103" x2="319" y2="103"/><line x1="0" y1="119" x2="319" y2="119"/><line x1="0" y1="135" x2="319" y2="135"/><line x1="0" y1="151" x2="319" y2="151"/><line x1="0" y1="167" x2="319" y2="167"/><line x1="0" y1="183" x2="319" y2="183"/><line x1="0" y1="199" x2="319" y2="199"/><line x1="0" y1="215" x2="319" y2="215"/><line x1="0" y1="231" x2="319" y2="231"/><line x1="0" y1="247" x2="319" y2="247"/><line x1="0" y1="263" x2="319" y2="263"/><line x1="0" y1="279" x2="319" y2="279"/><line x1="0" y1="295" x2="319" y2="295"/></g><rect x="1" y="311" width="317" height="236" fill="#231f20"/><text x="4" y="332" font-size="9" fill="#FEFEFE" text-anchor="start" xlink:title=""><tspan x="4" y="332" dx="0" dy="0">- --build=x86_64-linux-gnu --disable-browser-plugin</tspan><tspan x="4" y="332" dx="5" dy="10"> --disable-vtable-verify --enable-checking=release</tspan><tspan x="4" y="332" dx="5" dy="20"> --enable-clocale=gnu --enable-default-pie</tspan><tspan x="4" y="332" dx="5" dy="30"> --enable-gnu-unique-object --enable-gtk-cairo</tspan><tspan x="4" y="332" dx="5" dy="40"> --enable-java-awt=gtk --enable-java-home</tspan><tspan x="4" y="332" dx="5" dy="50"> --enable-languages=c,ada,c++,java,go,d,fortran,objc,obj-c++</tspan><tspan x="4" y="332" dx="5" dy="60"> --enable-libmpx --enable-libstdcxx-debug</tspan><tspan x="4" y="332" dx="5" dy="70"> --enable-libstdcxx-time=yes --enable-multiarch</tspan><tspan x="4" y="332" dx="5" dy="80"> --enable-multilib --enable-nls --enable-objc-gc=auto</tspan><tspan x="4" y="332" dx="5" dy="90"> --enable-plugin --enable-shared --enable-threads=posix</tspan><tspan x="4" y="332" dx="5" dy="100"> --host=x86_64-linux-gnu</tspan><tspan x="4" y="332" dx="5" dy="110"> --program-prefix=x86_64-linux-gnu-</tspan><tspan x="4" y="332" dx="5" dy="120"> --target=x86_64-linux-gnu --with-abi=m64</tspan><tspan x="4" y="332" dx="5" dy="130"> --with-arch-32=i686 --with-arch-directory=amd64</tspan><tspan x="4" y="332" dx="5" dy="140"> --with-default-libstdcxx-abi=new</tspan><tspan x="4" y="332" dx="5" dy="150"> --with-multilib-list=m32,m64,mx32</tspan><tspan x="4" y="332" dx="5" dy="160"> --with-target-system-zlib --with-tune=generic -v </tspan></text><text x="4" y="519" font-size="9" fill="#FEFEFE" text-anchor="start" width="315">- Scaling Governor: intel_pstate powersave</text><text x="4" y="531" font-size="9" fill="#FEFEFE" text-anchor="start" xlink:title=""><tspan x="4" y="531" dx="0" dy="0">- KPTI + __user pointer sanitization + Full generic retpoline </tspan></text></svg>
